<svg xmlns="http://www.w3.org/2000/svg" viewBox="0 0 96 64">
          <circle cx="86" cy="11" r="5.5" fill="#F5B70F"/>
          <g stroke="#F5B70F" stroke-width="2" stroke-linecap="round">
            <path d="M86 3.5 L86 1.5"/>
            <path d="M78.5 11 L76.5 11"/>
            <path d="M80.8 5.8 L79.4 4.4"/>
          </g>
          <g fill="#E9F1F9">
            <circle cx="13" cy="18" r="4"/>
            <circle cx="19" cy="15.5" r="5"/>
            <circle cx="25" cy="18" r="3.8"/>
            <rect x="11" y="17" width="16" height="4.5" rx="2.2"/>
          </g>
          <path d="M2 57 Q48 51 94 57 L94 61 Q48 55 2 61 Z" fill="#7FB069"/>
          <rect x="31" y="33" width="34" height="24" fill="#FFFFFF"/>
          <path d="M27 35 L48 19 L69 35 Z" fill="#0A2B4E"/>
          <circle cx="48" cy="29.5" r="2.6" fill="#F5B70F"/>
          <path d="M48 19 L48 10" stroke="#0A2B4E" stroke-width="1.5"/>
          <path d="M48 10 L56 12.2 L48 14.4 Z" fill="#B92025"/>
          <path d="M44 56 L44 45.5 Q48 41.5 52 45.5 L52 56 Z" fill="#B92025"/>
          <g fill="#0A2B4E">
            <rect x="34.5" y="40" width="7" height="7" rx="1"/>
            <rect x="54.5" y="40" width="7" height="7" rx="1"/>
          </g>
          <g stroke="#FFFFFF" stroke-width="1">
            <path d="M38 40.5 L38 47"/><path d="M34.5 43.5 L41.5 43.5"/>
            <path d="M58 40.5 L58 47"/><path d="M54.5 43.5 L61.5 43.5"/>
          </g>
          <g fill="#7FB069">
            <circle cx="14" cy="51" r="5.5"/>
            <circle cx="20" cy="48.5" r="6.5"/>
            <circle cx="25.5" cy="51.5" r="4.8"/>
          </g>
          <g stroke="#7FB069" stroke-width="1.5" stroke-linecap="round">
            <path d="M78 56 L78 50.5"/>
            <path d="M84 56 L84 52.5"/>
          </g>
          <circle cx="78" cy="49" r="2.2" fill="#B92025"/>
          <circle cx="84" cy="51" r="2" fill="#F5B70F"/>
          <circle cx="78" cy="49" r="0.8" fill="#FFFFFF"/>
          <circle cx="84" cy="51" r="0.7" fill="#FFFFFF"/>
        </svg>
